<svg width="16" height="17" viewBox="0 0 16 17" fill="none" xmlns="http://www.w3.org/2000/svg">
<path d="M12.667 5.16658H10.667V4.49992C10.667 3.79267 10.386 3.1144 9.88594 2.6143C9.38585 2.1142 8.70757 1.83325 8.00033 1.83325C7.29308 1.83325 6.6148 2.1142 6.11471 2.6143C5.61461 3.1144 5.33366 3.79267 5.33366 4.49992V5.16658H3.33366C3.15685 5.16658 2.98728 5.23682 2.86225 5.36185C2.73723 5.48687 2.66699 5.65644 2.66699 5.83325V13.1666C2.66699 13.697 2.87771 14.2057 3.25278 14.5808C3.62785 14.9559 4.13656 15.1666 4.66699 15.1666H11.3337C11.8641 15.1666 12.3728 14.9559 12.7479 14.5808C13.1229 14.2057 13.3337 13.697 13.3337 13.1666V5.83325C13.3337 5.65644 13.2634 5.48687 13.1384 5.36185C13.0134 5.23682 12.8438 5.16658 12.667 5.16658ZM6.66699 4.49992C6.66699 4.1463 6.80747 3.80716 7.05752 3.55711C7.30757 3.30706 7.6467 3.16659 8.00033 3.16659C8.35395 3.16659 8.69309 3.30706 8.94313 3.55711C9.19318 3.80716 9.33366 4.1463 9.33366 4.49992V5.16658H6.66699V4.49992ZM12.0003 13.1666C12.0003 13.3434 11.9301 13.513 11.8051 13.638C11.68 13.763 11.5105 13.8333 11.3337 13.8333H4.66699C4.49018 13.8333 4.32061 13.763 4.19559 13.638C4.07056 13.513 4.00033 13.3434 4.00033 13.1666V6.49992H5.33366V7.16658C5.33366 7.3434 5.4039 7.51297 5.52892 7.63799C5.65395 7.76301 5.82351 7.83325 6.00033 7.83325C6.17714 7.83325 6.34671 7.76301 6.47173 7.63799C6.59675 7.51297 6.66699 7.3434 6.66699 7.16658V6.49992H9.33366V7.16658C9.33366 7.3434 9.4039 7.51297 9.52892 7.63799C9.65395 7.76301 9.82351 7.83325 10.0003 7.83325C10.1771 7.83325 10.3467 7.76301 10.4717 7.63799C10.5968 7.51297 10.667 7.3434 10.667 7.16658V6.49992H12.0003V13.1666Z" fill="white"/>
</svg>
