<svg width="50" height="50" viewBox="0 0 50 50" fill="none" xmlns="http://www.w3.org/2000/svg">
<circle cx="25" cy="25" r="25" fill="url(#paint0_linear_67_295)"/>
<circle cx="25" cy="25" r="25" fill="url(#paint1_linear_67_295)"/>
<path d="M27.317 31.417L26.9236 31.1085L27.317 31.417ZM22.6823 31.417L22.2889 31.7256L22.6823 31.417ZM24.9997 33.3379V32.8379V33.3379ZM31.1663 23.0072C31.1663 24.0638 30.6187 25.4557 29.7783 26.9415C28.9489 28.4078 27.8784 29.8909 26.9236 31.1085L27.7105 31.7256C28.6804 30.4888 29.7846 28.9616 30.6487 27.4339C31.5017 25.9258 32.1663 24.34 32.1663 23.0072H31.1663ZM23.0758 31.1085C22.1209 29.8909 21.0505 28.4078 20.2211 26.9415C19.3806 25.4557 18.833 24.0638 18.833 23.0072H17.833C17.833 24.34 18.4976 25.9258 19.3507 27.4339C20.2148 28.9616 21.319 30.4888 22.2889 31.7256L23.0758 31.1085ZM18.833 23.0072C18.833 19.2862 21.6278 16.3333 24.9997 16.3333V15.3333C21.0077 15.3333 17.833 18.8042 17.833 23.0072H18.833ZM24.9997 16.3333C28.3715 16.3333 31.1663 19.2862 31.1663 23.0072H32.1663C32.1663 18.8042 28.9916 15.3333 24.9997 15.3333V16.3333ZM26.9236 31.1085C26.4105 31.7628 26.0635 32.2025 25.7497 32.4876C25.4573 32.7532 25.2436 32.8379 24.9997 32.8379V33.8379C25.5668 33.8379 26.0096 33.6025 26.4221 33.2278C26.8132 32.8725 27.2193 32.3519 27.7105 31.7256L26.9236 31.1085ZM22.2889 31.7256C22.78 32.3519 23.1862 32.8725 23.5773 33.2278C23.9897 33.6025 24.4325 33.8379 24.9997 33.8379V32.8379C24.7558 32.8379 24.542 32.7532 24.2496 32.4876C23.9359 32.2025 23.5889 31.7628 23.0758 31.1085L22.2889 31.7256ZM21.9997 23.3333C21.9997 24.9902 23.3428 26.3333 24.9997 26.3333V25.3333C23.8951 25.3333 22.9997 24.4379 22.9997 23.3333H21.9997ZM24.9997 26.3333C26.6565 26.3333 27.9997 24.9902 27.9997 23.3333H26.9997C26.9997 24.4379 26.1042 25.3333 24.9997 25.3333V26.3333ZM27.9997 23.3333C27.9997 21.6765 26.6565 20.3333 24.9997 20.3333V21.3333C26.1042 21.3333 26.9997 22.2287 26.9997 23.3333H27.9997ZM24.9997 20.3333C23.3428 20.3333 21.9997 21.6765 21.9997 23.3333H22.9997C22.9997 22.2287 23.8951 21.3333 24.9997 21.3333V20.3333Z" fill="#FAFAFA"/>
<defs>
<linearGradient id="paint0_linear_67_295" x1="-1.75234" y1="-11.9403" x2="104.117" y2="1.21711" gradientUnits="userSpaceOnUse">
<stop stop-color="#D25147"/>
<stop offset="1" stop-color="#C74242"/>
</linearGradient>
<linearGradient id="paint1_linear_67_295" x1="-2.55319" y1="21.2672" x2="56.7588" y2="23.5798" gradientUnits="userSpaceOnUse">
<stop stop-color="#E34134"/>
<stop offset="1" stop-color="#C74242"/>
</linearGradient>
</defs>
</svg>
