<svg width="50" height="50" viewBox="0 0 50 50" fill="none" xmlns="http://www.w3.org/2000/svg">
<circle cx="25" cy="25" r="25" fill="url(#paint0_linear_67_290)"/>
<circle cx="25" cy="25" r="25" fill="url(#paint1_linear_67_290)"/>
<path d="M30.3036 24.327V23.8556C30.3036 23.7851 30.3036 23.7498 30.3032 23.72C30.2709 21.4655 28.4511 19.6457 26.1966 19.6134C26.1668 19.613 26.1315 19.613 26.061 19.613H25.5896M33.25 24.9163V24.0913C33.25 23.3874 33.25 23.0355 33.2234 22.7388C32.9358 19.5266 30.3901 16.9808 27.1778 16.6932C26.8812 16.6667 26.5292 16.6667 25.8254 16.6667L25.0004 16.6667M22.3152 22.6862C21.9375 23.5527 22.1287 24.562 22.797 25.2304L24.7944 27.2277C25.4628 27.8961 26.4721 28.0873 27.3386 27.7096C28.2051 27.3319 29.2145 27.523 29.8828 28.1914L31.098 29.4066C31.1569 29.4655 31.1863 29.4949 31.2101 29.5208C31.796 30.1584 31.796 31.1385 31.2101 31.7762C31.1863 31.8021 31.1569 31.8315 31.098 31.8904L30.3594 32.629C29.7579 33.2305 28.8908 33.483 28.0604 33.2985C22.4024 32.0412 17.9836 27.6224 16.7263 21.9644C16.5418 21.134 16.7943 20.2669 17.3958 19.6654L18.1344 18.9268C18.1932 18.8679 18.2227 18.8385 18.2486 18.8147C18.8862 18.2288 19.8663 18.2288 20.504 18.8147C20.5299 18.8385 20.5593 18.8679 20.6182 18.9268L21.8334 20.1419C22.5017 20.8103 22.6929 21.8197 22.3152 22.6862Z" stroke="#FAFAFA" stroke-linecap="round"/>
<defs>
<linearGradient id="paint0_linear_67_290" x1="-1.75234" y1="-11.9403" x2="104.117" y2="1.21711" gradientUnits="userSpaceOnUse">
<stop stop-color="#D25147"/>
<stop offset="1" stop-color="#C74242"/>
</linearGradient>
<linearGradient id="paint1_linear_67_290" x1="-2.55319" y1="21.2672" x2="56.7588" y2="23.5798" gradientUnits="userSpaceOnUse">
<stop stop-color="#E34134"/>
<stop offset="1" stop-color="#C74242"/>
</linearGradient>
</defs>
</svg>
